<?xml version="1.0" encoding="UTF-8" standalone="no"?>
<!DOCTYPE svg PUBLIC "-//W3C//DTD SVG 1.1//EN" "http://www.w3.org/Graphics/SVG/1.1/DTD/svg11.dtd">
<svg width="100%" height="100%" viewBox="0 0 1200 517" version="1.1" xmlns="http://www.w3.org/2000/svg" xmlns:xlink="http://www.w3.org/1999/xlink" xml:space="preserve" style="fill-rule:evenodd;clip-rule:evenodd;stroke-linejoin:round;stroke-miterlimit:1.41421;">
    <g transform="matrix(1,0,0,1,0,-143.1)">
        <path d="M257.3,155.4C393.2,155.4 503.4,265.6 503.4,401.5C503.4,537.4 393.2,647.6 257.3,647.6C121.4,647.6 11.2,537.4 11.2,401.5C11.2,265.6 121.4,155.4 257.3,155.4Z" style="fill:white;"/>
    </g>
    <g transform="matrix(1,0,0,1,0,-143.1)">
        <path d="M258.3,150.5C396.9,150.5 509.2,262.9 509.2,401.4C509.2,540 396.8,652.3 258.3,652.3C119.7,652.4 7.4,540.1 7.4,401.5C7.4,262.9 119.7,150.5 258.3,150.5ZM255.7,163.5C254.5,163.5 253.4,163.5 252.2,163.6C122.5,165.5 17.8,271.3 17.8,401.5C17.8,531.8 122.8,637.8 252.7,639.4C188.4,637.8 136.8,585.1 136.8,520.5C136.8,454.8 190.1,401.5 255.8,401.5C321.5,401.5 374.8,348.2 374.8,282.5C374.7,216.8 321.4,163.5 255.7,163.5Z"/>
    </g>
    <g transform="matrix(1,0,0,1,0,-143.1)">
        <path d="M218.2,305.9L218.2,217.2C218.2,213.3 219.6,210 222.4,207.2C225.2,204.4 228.6,203 232.5,203L278.7,203C282.5,203 285.8,204.4 288.6,207.2C291.4,210 292.8,213.4 292.8,217.2L292.8,305.9C292.8,309.8 291.4,313.2 288.6,316C285.8,318.8 282.4,320.2 278.5,320.2L232.4,320.2C228.4,320.2 225,318.8 222.2,316C219.6,313.2 218.2,309.8 218.2,305.9ZM278.2,305.4L278.2,217.9L233,217.9L233,305.4L278.2,305.4Z"/>
    </g>
    <g transform="matrix(1,0,0,1,0,-143.1)">
        <path d="M235.1,574.1L257.9,574.1L257.9,486.7L235.5,486.7C233.4,486.7 231.7,486 230.2,484.5C228.8,483.1 228,481.3 228,479.2C228,477.2 228.7,475.4 230.2,474C231.6,472.6 233.4,471.8 235.5,471.8L272.7,471.8L272.7,574.1L287.5,574.1L287.5,543.2C287.5,541.2 288.2,539.5 289.7,538C291.1,536.5 292.9,535.8 295,535.8C297.1,535.8 298.8,536.5 300.3,538C301.7,539.4 302.5,541.2 302.5,543.3L302.5,581.6C302.5,583.7 301.8,585.4 300.3,586.9C298.9,588.3 297.1,589 295,589L235.2,589C233.1,589 231.4,588.3 230,586.8C228.6,585.3 227.8,583.5 227.8,581.5C227.8,579.5 228.5,577.8 230,576.4C231.3,574.8 233,574.1 235.1,574.1Z" style="fill:white;"/>
    </g>
    <g>
        <g transform="matrix(1,0,0,1,0,-143.1)">
            <path d="M708.6,374.3C696,376 682.2,381 667.3,389.2C642.5,402.3 621.4,420.8 604.1,444.6C587.2,467.2 578.8,487.5 578.8,505.6L539,505.6C539,484.5 548.2,460.7 566.5,434.2C582.6,410.6 601.7,390.7 623.8,374.3L546.4,374.3L546.4,345.7L708.2,346.1L708.6,374.3ZM708.6,464.7L700.4,496.3L557.2,496.3L568.4,464.7L708.6,464.7Z" style="fill-rule:nonzero;"/>
        </g>
        <g transform="matrix(1,0,0,1,0,-143.1)">
            <path d="M889.3,403.7C889.3,412.4 885.8,419.4 878.9,424.9C873,429.4 866.7,431.6 860,431.6L765.1,431.6L765.1,468L886.3,468L878.1,495.1L753.6,495.1C746.9,495.1 740.6,492.8 734.6,488.2C727.7,483.1 724.2,476.4 724.2,467.9L724.2,346.8L849.5,346.8L849.5,332L886.3,328.3L886.3,373.7L765.1,373.7L765.1,400.8L889.3,400.8L889.3,403.7Z" style="fill-rule:nonzero;"/>
        </g>
        <g transform="matrix(1,0,0,1,0,-143.1)">
            <path d="M1098.4,520.1C1079.1,520.1 1060.6,512.3 1042.7,496.7C1022.7,479.1 998.6,447.6 970.4,402.2L970.4,493.7L929.5,497.4L929.5,368.4C923.8,367.7 918.1,366.9 912.4,366.2C906.7,364 903.8,359.3 903.8,352.1L903.8,345.4L974.3,345.4C1001.8,395.5 1033.4,441.6 1069.3,483.7L1069.3,345.3L1106.1,345.3L1106.1,496.7C1109.6,497.4 1111.5,497.5 1112.4,497.4C1116.7,497.2 1147.7,489.4 1148.9,489.1C1149,489.2 1105.3,520.1 1098.4,520.1Z" style="fill-rule:nonzero;"/>
        </g>
    </g>
    <g transform="matrix(1,0,0,1,0,-143.1)">
        <path d="M1182.9,490.6C1167.8,502.9 1139.8,493.6 1139.8,493.6C1139.8,493.6 1136.4,464.4 1151.5,452C1166.6,439.7 1194.6,449 1194.6,449C1194.6,449 1198.1,478.3 1182.9,490.6Z" style="fill:rgb(74,183,73);fill-rule:nonzero;"/>
    </g>
    <g transform="matrix(1,0,0,1,0,-143.1)">
        <path d="M1132.4,478.3C1132,485.3 1122.8,490.4 1122.8,490.4C1122.8,490.4 1114.2,484.2 1114.6,477.2C1115,470.2 1124.2,465.1 1124.2,465.1C1124.2,465.1 1132.8,471.3 1132.4,478.3Z" style="fill:rgb(74,183,73);fill-rule:nonzero;"/>
    </g>
    <g transform="matrix(1,0,0,1,0,-143.1)">
        <path d="M1146.8,527.8C1134.6,525.8 1126.9,510.8 1126.9,510.8C1126.9,510.8 1139,499 1151.2,501C1163.4,503 1171.1,518 1171.1,518C1171.1,518 1159,529.8 1146.8,527.8Z" style="fill:rgb(74,183,73);fill-rule:nonzero;"/>
    </g>
</svg>
