<?xml version="1.0" encoding="utf-8"?>
<!-- Generator: Adobe Illustrator 20.1.0, SVG Export Plug-In . SVG Version: 6.00 Build 0)  -->
<svg version="1.1" id="Layer_1" xmlns="http://www.w3.org/2000/svg" xmlns:xlink="http://www.w3.org/1999/xlink" x="0px" y="0px"
	 viewBox="0 0 1200 800" style="enable-background:new 0 0 1200 800;" xml:space="preserve">
<style type="text/css">
	.st0{fill-rule:evenodd;clip-rule:evenodd;fill:#FFFFFF;}
	.st1{fill-rule:evenodd;clip-rule:evenodd;}
	.st2{fill:#4AB749;}
</style>
<path class="st0" d="M257.3,155.4c135.9,0,246.1,110.2,246.1,246.1c0,135.9-110.2,246.1-246.1,246.1
	c-135.9,0-246.1-110.2-246.1-246.1C11.2,265.6,121.4,155.4,257.3,155.4L257.3,155.4z"/>
<path class="st1" d="M258.3,150.5c138.6,0,250.9,112.4,250.9,250.9c0,138.6-112.4,250.9-250.9,250.9
	C119.7,652.4,7.4,540.1,7.4,401.5C7.4,262.9,119.7,150.5,258.3,150.5L258.3,150.5z M255.7,163.5c-1.2,0-2.3,0-3.5,0.1
	C122.5,165.5,17.8,271.3,17.8,401.5c0,130.3,105,236.3,234.9,237.9c-64.3-1.6-115.9-54.3-115.9-118.9c0-65.7,53.3-119,119-119
	c65.7,0,119-53.3,119-119C374.7,216.8,321.4,163.5,255.7,163.5L255.7,163.5z"/>
<path class="st1" d="M218.2,305.9v-88.7c0-3.9,1.4-7.2,4.2-10c2.8-2.8,6.2-4.2,10.1-4.2h46.2c3.8,0,7.1,1.4,9.9,4.2
	c2.8,2.8,4.2,6.2,4.2,10v88.7c0,3.9-1.4,7.3-4.2,10.1c-2.8,2.8-6.2,4.2-10.1,4.2h-46.1c-4,0-7.4-1.4-10.2-4.2
	C219.6,313.2,218.2,309.8,218.2,305.9L218.2,305.9z M278.2,305.4v-87.5H233v87.5H278.2L278.2,305.4z"/>
<path class="st0" d="M235.1,574.1h22.8v-87.4h-22.4c-2.1,0-3.8-0.7-5.3-2.2c-1.4-1.4-2.2-3.2-2.2-5.3c0-2,0.7-3.8,2.2-5.2
	c1.4-1.4,3.2-2.2,5.3-2.2h37.2v102.3h14.8v-30.9c0-2,0.7-3.7,2.2-5.2c1.4-1.5,3.2-2.2,5.3-2.2c2.1,0,3.8,0.7,5.3,2.2
	c1.4,1.4,2.2,3.2,2.2,5.3v38.3c0,2.1-0.7,3.8-2.2,5.3c-1.4,1.4-3.2,2.1-5.3,2.1h-59.8c-2.1,0-3.8-0.7-5.2-2.2
	c-1.4-1.5-2.2-3.3-2.2-5.3c0-2,0.7-3.7,2.2-5.1C231.3,574.8,233,574.1,235.1,574.1L235.1,574.1z"/>
<g>
	<path d="M708.6,374.3c-12.6,1.7-26.4,6.7-41.3,14.9c-24.8,13.1-45.9,31.6-63.2,55.4c-16.9,22.6-25.3,42.9-25.3,61H539
		c0-21.1,9.2-44.9,27.5-71.4c16.1-23.6,35.2-43.5,57.3-59.9h-77.4v-28.6l161.8,0.4L708.6,374.3z M708.6,464.7l-8.2,31.6H557.2
		l11.2-31.6H708.6z"/>
	<path d="M889.3,403.7c0,8.7-3.5,15.7-10.4,21.2c-5.9,4.5-12.2,6.7-18.9,6.7h-94.9v36.4h121.2l-8.2,27.1H753.6c-6.7,0-13-2.3-19-6.9
		c-6.9-5.1-10.4-11.8-10.4-20.3V346.8h125.3V332l36.8-3.7v45.4H765.1v27.1h124.2V403.7z"/>
	<path d="M1098.4,520.1c-19.3,0-37.8-7.8-55.7-23.4c-20-17.6-44.1-49.1-72.3-94.5v91.5l-40.9,3.7V368.4c-5.7-0.7-11.4-1.5-17.1-2.2
		c-5.7-2.2-8.6-6.9-8.6-14.1v-6.7h70.5c27.5,50.1,59.1,96.2,95,138.3V345.3h36.8v151.4c3.5,0.7,5.4,0.8,6.3,0.7
		c4.3-0.2,35.3-8,36.5-8.3C1149,489.2,1105.3,520.1,1098.4,520.1z"/>
</g>
<path class="st2" d="M1182.9,490.6c-15.1,12.3-43.1,3-43.1,3s-3.4-29.2,11.7-41.6c15.1-12.3,43.1-3,43.1-3
	S1198.1,478.3,1182.9,490.6z"/>
<path class="st2" d="M1132.4,478.3c-0.4,7-9.6,12.1-9.6,12.1s-8.6-6.2-8.2-13.2c0.4-7,9.6-12.1,9.6-12.1S1132.8,471.3,1132.4,478.3z
	"/>
<path class="st2" d="M1146.8,527.8c-12.2-2-19.9-17-19.9-17s12.1-11.8,24.3-9.8c12.2,2,19.9,17,19.9,17S1159,529.8,1146.8,527.8z"/>
<g>
</g>
<g>
</g>
<g>
</g>
<g>
</g>
<g>
</g>
<g>
</g>
</svg>
